<svg width="22" height="17" viewBox="0 0 22 17" fill="none" xmlns="http://www.w3.org/2000/svg">
<path d="M1.608 9.696C1.192 9.696 0.84 9.568 0.552 9.312C0.28 9.04 0.144 8.704 0.144 8.304C0.144 7.904 0.28 7.576 0.552 7.32C0.84 7.064 1.192 6.936 1.608 6.936H2.904L3.816 7.416H17.928L18.96 6.936H20.184C20.6 6.936 20.944 7.064 21.216 7.32C21.504 7.576 21.648 7.904 21.648 8.304C21.648 8.704 21.504 9.04 21.216 9.312C20.944 9.568 20.6 9.696 20.184 9.696H18.336L16.872 9.216H4.752L3.336 9.696H1.608ZM20.304 0C20.672 0 21.024 0.144 21.36 0.431999C21.696 0.703999 21.864 1.08 21.864 1.56C21.864 1.704 21.84 1.864 21.792 2.04L17.064 15.96C16.968 16.248 16.792 16.472 16.536 16.632C16.296 16.776 16.04 16.856 15.768 16.872C15.496 16.872 15.224 16.792 14.952 16.632C14.696 16.472 14.496 16.24 14.352 15.936L10.8 7.872L11.016 8.016L7.512 15.936C7.368 16.24 7.16 16.472 6.888 16.632C6.632 16.792 6.368 16.872 6.096 16.872C5.84 16.856 5.584 16.776 5.328 16.632C5.072 16.472 4.896 16.248 4.8 15.96L0.072 2.04C0.024 1.864 0 1.704 0 1.56C0 1.08 0.168 0.703999 0.504 0.431999C0.856 0.144 1.216 0 1.584 0C1.888 0 2.168 0.0799999 2.424 0.24C2.696 0.4 2.88 0.631999 2.976 0.935999L6.792 12.504L6.264 12.48L9.672 4.296C9.8 4.008 9.984 3.784 10.224 3.624C10.464 3.448 10.736 3.368 11.04 3.384C11.344 3.368 11.616 3.448 11.856 3.624C12.096 3.784 12.272 4.008 12.384 4.296L15.504 12.12L15.12 12.36L18.888 0.935999C18.984 0.631999 19.168 0.4 19.44 0.24C19.712 0.0799999 20 0 20.304 0Z" fill="white"/>
</svg>
